<svg width="278" height="248" viewBox="0 0 278 248" fill="none" xmlns="http://www.w3.org/2000/svg">
<path d="M278 92.9511C278 82.6894 275.069 73.2671 270.2 65.8754C270.442 63.4656 270.618 61.0016 270.618 58.5107C270.618 26.1822 249.288 0 223 0C196.69 0 175.382 26.2093 175.382 58.5107C175.382 61.0016 175.558 63.4656 175.8 65.8754C170.931 73.2941 168 82.6894 168 92.9511C168 99.6659 169.278 106.002 171.504 111.66C169.256 120.785 168.551 130.722 169.829 141.038C173.443 170.442 193.208 193.537 217.271 196.597C249.552 200.713 276.81 169.684 276.81 130.857C276.81 124.197 275.995 117.752 274.496 111.66C276.722 106.002 278 99.6659 278 92.9511Z" fill="#179299"/>
<path d="M266.74 133.538C266.74 135.921 265.175 137.87 263.214 137.87H259.138C243.03 137.87 233.092 149.865 233.092 170.767V223.998C233.092 226.381 231.527 228.33 229.566 228.33H219.606C217.667 228.33 216.081 226.408 216.081 223.998V124.197C216.081 121.814 217.645 119.865 219.606 119.865H228.751C230.58 119.865 232.1 121.597 232.255 123.845C232.497 127.473 236.111 129.206 238.204 126.606C242.809 120.893 249.508 117.428 257.683 117.428C259.821 117.428 261.716 117.644 263.809 118.078C265.484 118.43 266.718 120.244 266.718 122.328V133.538H266.74Z" fill="#484848"/>
<path opacity="0.8" d="M197.924 144.125C209.14 144.125 217.557 150.623 221.634 160.587C221.876 161.182 221.986 161.859 221.986 162.536V170.713C221.986 174.558 218.108 176.588 215.971 173.745C211.453 167.762 204.799 164.567 196.469 164.567H192.393C190.454 164.567 188.867 162.644 188.867 160.235V149.025C188.867 146.941 190.101 145.099 191.776 144.775C193.913 144.341 195.786 144.125 197.924 144.125Z" fill="#484848"/>
<path d="M35.0269 117.057V83.3355L32.0288 83.5012V62.7318L60.9497 62.5662V83.0208H57.9516V102.83L35.0269 117.057Z" fill="#6B42B5"/>
<path d="M57.9532 83.0212L35.025 83.3459V93.3263L57.9532 92.7855V83.0212Z" fill="#502F93"/>
<path d="M117.201 74.6404L34.1311 150.265L34.7709 220.175L198.845 218.767L199.083 144.236L117.201 74.6404Z" fill="#EDD5FE"/>
<path d="M31.0233 207.902L36.7636 205.037V148.592L31.4255 151.821C31.4072 151.821 32.0105 207.902 31.0233 207.902Z" fill="#58308C"/>
<path d="M195.975 151.639V204.689L201.715 207.554V153.61L195.975 151.639Z" fill="#58308C"/>
<path d="M117.768 82.7227L31.4072 155.946V137.478L117.859 63.2949L201.715 141.967V157.552L117.768 82.7227Z" fill="#C9ABF1"/>
<path d="M22.9429 134.315L17.879 142.778L31.462 142.596C31.462 142.596 116.196 67.9325 118.024 67.8662C120.236 67.7834 201.679 143.905 201.679 143.905L213.726 143.739L123.344 55.5272L110.071 54.7322L22.9429 134.315Z" fill="#58308C"/>
<path d="M7.31251 140.658C5.88657 142.232 7.29423 143.06 8.44595 143.06C9.59767 143.06 22.8699 142.712 22.8699 142.712L114.349 62.0694C114.349 62.0694 116.452 60.115 117.951 60.1813C119.578 60.2475 121.68 62.1191 121.68 62.1191L213.598 143.756C213.598 143.756 224.073 143.789 225.737 143.408C227.547 143.01 226.633 141.453 224.402 139.284C222.757 137.677 129.833 54.401 128.298 52.96C123.728 48.6869 121.497 46.2025 117.183 46.3681C112.85 46.5338 110.291 49.4322 105.958 53.0428C104.678 54.136 7.91579 139.996 7.31251 140.658Z" fill="#7F54DE"/>
<path d="M170.93 169.875H189.668V155.747C189.668 155.123 189.532 154.504 189.269 153.928C189.005 153.351 188.618 152.827 188.131 152.386C187.644 151.944 187.066 151.594 186.429 151.355C185.793 151.116 185.11 150.993 184.421 150.993H170.93V169.875Z" fill="#A6CFD5"/>
<path d="M165.299 169.875V150.993H150.674C149.985 150.993 149.303 151.116 148.666 151.355C148.03 151.594 147.451 151.944 146.964 152.386C146.477 152.827 146.09 153.351 145.827 153.928C145.563 154.504 145.427 155.123 145.427 155.747V169.891H165.299V169.875Z" fill="#A6CFD5"/>
<path d="M165.299 175.241H145.427V188.491C145.427 189.752 145.98 190.961 146.964 191.852C147.948 192.744 149.283 193.244 150.674 193.244H165.299V175.241Z" fill="#A6CFD5"/>
<path d="M170.93 175.241V193.244H184.421C185.813 193.244 187.147 192.744 188.131 191.852C189.115 190.961 189.668 189.752 189.668 188.491V175.241H170.93Z" fill="#A6CFD5"/>
<path d="M67.1836 169.875H85.9219V155.747C85.9219 155.123 85.7862 154.504 85.5225 153.928C85.2588 153.351 84.8724 152.827 84.3851 152.386C83.8979 151.944 83.3196 151.594 82.683 151.355C82.0464 151.116 81.3642 150.993 80.6752 150.993H67.1836V169.875Z" fill="#A6CFD5"/>
<path d="M61.5347 169.875V150.993H46.9097C46.2207 150.993 45.5384 151.116 44.9018 151.355C44.2653 151.594 43.6869 151.944 43.1997 152.386C42.7125 152.827 42.326 153.351 42.0623 153.928C41.7987 154.504 41.663 155.123 41.663 155.747V169.891H61.5347V169.875Z" fill="#A6CFD5"/>
<path d="M61.5345 175.241H41.681V188.491C41.681 189.752 42.2338 190.961 43.2178 191.852C44.2017 192.744 45.5362 193.244 46.9278 193.244H61.5528V175.241H61.5345Z" fill="#A6CFD5"/>
<path d="M67.1836 175.241V193.244H80.6752C82.0667 193.244 83.4012 192.744 84.3851 191.852C85.3691 190.961 85.9219 189.752 85.9219 188.491V175.241H67.1836Z" fill="#A6CFD5"/>
<path d="M92.0278 212.772C92.0278 212.772 91.7535 171.796 92.0278 161.444C92.302 151.109 103.015 142.166 115.428 142.547C130.784 143.027 138.681 150.844 139.248 160.931C139.815 171.018 139.815 213.401 139.815 213.401L92.0278 212.772Z" fill="#658E96"/>
<path d="M97.7498 214.991C97.7498 214.991 97.5305 171.332 97.7498 163.25C98.0241 153.229 106.36 147.963 116.049 148.459C127.329 149.039 132.905 154.472 133.343 162.372C133.782 170.256 133.782 215.024 133.782 215.024L97.7498 214.991Z" fill="#7247C2"/>
<path d="M127.95 179.398C127.914 172.21 127.841 165.866 127.731 163.929C127.439 158.711 123.344 154.654 115.391 154.405C108.975 154.206 103.691 158.745 103.545 164.094C103.49 166.065 103.508 172.26 103.545 179.315L127.95 179.398Z" fill="#9665E5"/>
<path d="M103.6 187.464C103.673 197.087 103.764 205.948 103.764 205.948L128.024 206.014C128.024 206.014 128.024 197.186 127.987 187.563L103.6 187.464Z" fill="#9665E5"/>
<path d="M128.024 183.091C127.932 185.427 128.974 187.315 132.027 187.315C135.08 187.315 136.195 186.023 136.415 183.522C136.597 181.286 134.897 179.299 132.027 179.464C129.175 179.646 128.097 181.452 128.024 183.091Z" fill="#FFBA02"/>
<path d="M145.537 228.638C145.537 228.638 165.427 228.821 179.796 228.44C194.165 228.059 204.567 228.638 206.706 226.684C208.845 224.746 208.808 208.233 198.845 203.761C189.686 199.654 183.763 203.828 180.619 204.109C176.469 204.49 171.332 202.155 167.566 202.089C152.009 201.791 146.561 212.871 146.561 212.871L145.537 228.638Z" fill="#179299"/>
<path d="M26.5626 227.28C28.2262 228.688 40.9317 228.738 56.2697 228.638C71.6076 228.539 83.9475 228.672 83.9475 228.672L86.5069 214.643L83.399 212.308C83.399 212.308 83.7464 205.285 73.9659 202.884C67.2019 201.227 61.3153 203.96 55.6298 204.043C49.9443 204.142 44.6976 201.807 38.3723 203.165C32.4858 204.424 27.8972 207.902 26.0325 214.925C24.7345 219.794 25.0636 226.005 26.5626 227.28Z" fill="#179299"/>
<path d="M82.1194 243.313L82.2474 228.655H83.4356L83.4174 212.324H146.908L146.689 228.655H148.078V242.932C148.06 242.915 82.1194 243.396 82.1194 243.313Z" fill="#C9A5F6"/>
<path d="M148.06 236.903V242.915L82.1011 243.313L82.1559 236.854L148.06 236.903Z" fill="#9564E4"/>
<path d="M83.399 222.295L146.744 222.311V228.638H83.399V222.295Z" fill="#9563E4"/>
</svg>
